{
    "asset" : {
        "generator" : "Khronos glTF Blender I/O v0.9.36",
        "version" : "2.0"
    },
    "extensionsUsed" : [
        "KHR_lights_punctual"
    ],
    "extensionsRequired" : [
        "KHR_lights_punctual"
    ],
    "extensions" : {
        "KHR_lights_punctual" : {
            "lights" : [
                {
                    "color" : [
                        0,
                        1,
                        0
                    ],
                    "intensity" : 400,
                    "spot" : {
                        "innerConeAngle" : 0.15954719792659944,
                        "outerConeAngle" : 0.4372049868106842
                    },
                    "type" : "spot",
                    "name" : "Spot"
                },
                {
                    "color" : [
                        1,
                        0,
                        0
                    ],
                    "intensity" : 400,
                    "spot" : {
                        "innerConeAngle" : 0.15954719792659944,
                        "outerConeAngle" : 0.4372049868106842
                    },
                    "type" : "spot",
                    "name" : "Spot.001"
                },
                {
                    "color" : [
                        0,
                        0,
                        1
                    ],
                    "intensity" : 400,
                    "spot" : {
                        "innerConeAngle" : 0.15954719792659944,
                        "outerConeAngle" : 0.4372049868106842
                    },
                    "type" : "spot",
                    "name" : "Spot.002"
                }
            ]
        }
    },
    "scene" : 0,
    "scenes" : [
        {
            "name" : "Scene",
            "nodes" : [
                0,
                1,
                3,
                5,
                7
            ]
        }
    ],
    "nodes" : [
        {
            "name" : "Camera",
            "rotation" : [
                0.483536034822464,
                0.33687159419059753,
                -0.20870360732078552,
                0.7804827094078064
            ],
            "translation" : [
                9.009005546569824,
                6.279829025268555,
                8.600217819213867
            ]
        },
        {
            "mesh" : 0,
            "name" : "Cube",
            "scale" : [
                10.962080955505371,
                0.08144105225801468,
                16.779016494750977
            ]
        },
        {
            "extensions" : {
                "KHR_lights_punctual" : {
                    "light" : 0
                }
            },
            "name" : "Spot_Orientation",
            "rotation" : [
                -0.7071067690849304,
                0,
                0,
                0.7071067690849304
            ]
        },
        {
            "children" : [
                2
            ],
            "name" : "Spot",
            "scale" : [
                0.3101468086242676,
                0.3101468086242676,
                0.3101468086242676
            ],
            "translation" : [
                -0.66341632604599,
                7.244582176208496,
                1.5998828411102295
            ]
        },
        {
            "extensions" : {
                "KHR_lights_punctual" : {
                    "light" : 1
                }
            },
            "name" : "Spot.001_Orientation",
            "rotation" : [
                -0.7071067690849304,
                0,
                0,
                0.7071067690849304
            ]
        },
        {
            "children" : [
                4
            ],
            "name" : "Spot.001",
            "scale" : [
                0.3101468086242676,
                0.3101468086242676,
                0.3101468086242676
            ],
            "translation" : [
                -0.66341632604599,
                7.244582176208496,
                -1.63242506980896
            ]
        },
        {
            "extensions" : {
                "KHR_lights_punctual" : {
                    "light" : 2
                }
            },
            "name" : "Spot.002_Orientation",
            "rotation" : [
                -0.7071067690849304,
                0,
                0,
                0.7071067690849304
            ]
        },
        {
            "children" : [
                6
            ],
            "name" : "Spot.002",
            "scale" : [
                0.3101468086242676,
                0.3101468086242676,
                0.3101468086242676
            ],
            "translation" : [
                1.8185062408447266,
                7.244582176208496,
                -0.13917016983032227
            ]
        }
    ],
    "materials" : [
        {
            "doubleSided" : true,
            "name" : "Material.001",
            "pbrMetallicRoughness" : {
                "baseColorFactor" : [
                    1,
                    1,
                    1,
                    1
                ],
                "metallicFactor" : 0,
                "roughnessFactor" : 0.5
            }
        }
    ],
    "meshes" : [
        {
            "name" : "Cube.001",
            "primitives" : [
                {
                    "attributes" : {
                        "POSITION" : 0,
                        "NORMAL" : 1,
                        "TEXCOORD_0" : 2
                    },
                    "indices" : 3,
                    "material" : 0
                }
            ]
        }
    ],
    "accessors" : [
        {
            "bufferView" : 0,
            "componentType" : 5126,
            "count" : 24,
            "max" : [
                1,
                1,
                1
            ],
            "min" : [
                -1,
                -1,
                -1
            ],
            "type" : "VEC3"
        },
        {
            "bufferView" : 1,
            "componentType" : 5126,
            "count" : 24,
            "type" : "VEC3"
        },
        {
            "bufferView" : 2,
            "componentType" : 5126,
            "count" : 24,
            "type" : "VEC2"
        },
        {
            "bufferView" : 3,
            "componentType" : 5123,
            "count" : 36,
            "type" : "SCALAR"
        }
    ],
    "bufferViews" : [
        {
            "buffer" : 0,
            "byteLength" : 288,
            "byteOffset" : 0
        },
        {
            "buffer" : 0,
            "byteLength" : 288,
            "byteOffset" : 288
        },
        {
            "buffer" : 0,
            "byteLength" : 192,
            "byteOffset" : 576
        },
        {
            "buffer" : 0,
            "byteLength" : 72,
            "byteOffset" : 768
        }
    ],
    "buffers" : [
        {
            "byteLength" : 840,
            "uri" : "data:application/octet-stream;base64,"
        }
    ]
}
